<svg width="37" height="36" viewBox="0 0 37 36" fill="none" xmlns="http://www.w3.org/2000/svg">
<path d="M18.1 35.8C16.9 35.8 15.7 35.7001 14.5 35.4001C5 33.5 -1.3 24.1 0.700002 14.5C1.2 12 2.2 9.70005 3.6 7.70005L4.8 8.60005C3.5 10.5 2.6 12.5 2.1 14.8C1.3 19 2.1 23.4 4.5 27C6.9 30.6 10.6 33.1 14.8 34C19.1 34.9001 23.4 34 27 31.6C30.6 29.2001 33.1 25.5 34 21.3C34.9 17 34 12.7001 31.6 9.10005C29.2 5.50005 25.5 3.00005 21.3 2.10005C16.2 1.00005 10.8 2.50005 7 6.10005L5.9 5.00005C10.1 1.10005 16 -0.599951 21.6 0.600049C26.3 1.50005 30.3 4.20005 32.9 8.20005C35.5 12.2 36.4 16.9 35.5 21.5C34.6 26.2001 31.9 30.2 27.9 32.8C25 34.8 21.6 35.8 18.1 35.8Z" fill="#455E67"/>
<path d="M13.8999 14.2H10.3999V25.6H13.8999V14.2Z" fill="#455E67"/>
<path d="M12.1 12.7C13.2598 12.7 14.2 11.7598 14.2 10.6C14.2 9.4402 13.2598 8.5 12.1 8.5C10.9402 8.5 10 9.4402 10 10.6C10 11.7598 10.9402 12.7 12.1 12.7Z" fill="#455E67"/>
<path d="M19.5001 19.5999C19.5001 17.9999 20.2001 16.9999 21.6001 16.9999C22.9001 16.9999 23.5001 17.8999 23.5001 19.5999C23.5001 21.1999 23.5001 25.5999 23.5001 25.5999H27.0001C27.0001 25.5999 27.0001 21.3999 27.0001 18.3999C27.0001 15.3999 25.3001 13.8999 22.9001 13.8999C20.5001 13.8999 19.5001 15.7999 19.5001 15.7999V14.2999H16.1001V25.6999H19.5001C19.5001 25.5999 19.5001 21.3999 19.5001 19.5999Z" fill="#455E67"/>
</svg>
