<?xml version="1.0" encoding="UTF-8" standalone="no"?>
<!DOCTYPE svg PUBLIC "-//W3C//DTD SVG 20010904//EN"
              "http://www.w3.org/TR/2001/REC-SVG-20010904/DTD/svg10.dtd">

<svg xmlns="http://www.w3.org/2000/svg"
     width="11.1097in" height="11.1097in"
     viewBox="0 0 800 800">
  <path id="Selection"
        fill="purple" stroke="black" stroke-width="1"
        d="M 392.00,213.00
           C 392.00,213.00 386.89,234.00 386.89,234.00
             386.89,234.00 381.00,272.00 381.00,272.00
             381.00,272.00 417.00,270.09 417.00,270.09
             446.14,268.10 475.06,264.99 504.00,260.73
             504.00,260.73 554.00,252.00 554.00,252.00
             554.00,252.00 554.00,289.00 554.00,289.00
             517.96,295.56 481.38,298.64 445.00,302.17
             445.00,302.17 406.00,305.09 406.00,305.09
             406.00,305.09 396.00,306.00 396.00,306.00
             396.00,306.00 376.00,307.00 376.00,307.00
             376.00,307.00 374.17,327.00 374.17,327.00
             374.17,327.00 371.91,359.00 371.91,359.00
             371.91,359.00 371.00,368.00 371.00,368.00
             371.00,368.00 409.00,359.43 409.00,359.43
             431.17,355.71 441.12,356.04 463.00,356.00
             465.21,356.00 468.71,356.22 470.58,354.98
             472.92,353.42 473.71,349.57 474.37,347.00
             476.32,339.45 477.93,330.79 478.00,323.00
             484.91,323.58 511.11,330.42 518.00,333.00
             518.00,333.00 508.00,363.00 508.00,363.00
             519.81,364.67 535.48,372.05 546.00,377.77
             557.07,383.79 568.35,392.80 576.91,402.00
             611.72,439.42 615.63,498.35 592.74,543.00
             580.33,567.21 562.86,584.35 540.00,598.68
             518.69,612.04 493.50,621.01 469.00,626.42
             464.51,627.42 448.73,631.63 445.18,629.89
             442.55,628.59 439.94,623.53 438.31,621.00
             434.38,614.90 426.01,603.32 424.00,597.00
             433.21,596.80 449.82,593.42 459.00,591.13
             499.87,580.92 539.49,559.66 558.22,520.00
             562.98,509.93 566.87,496.17 567.00,485.00
             567.00,485.00 567.00,474.00 567.00,474.00
             566.96,445.88 549.25,420.93 526.00,406.42
             517.42,401.07 515.22,400.30 506.00,396.81
             503.77,395.96 499.68,394.09 497.39,395.20
             495.01,396.37 493.38,401.59 492.40,404.00
             492.40,404.00 481.74,428.00 481.74,428.00
             468.79,454.75 451.66,482.61 433.34,506.00
             424.31,517.53 412.47,530.77 402.00,540.99
             398.43,544.47 388.95,551.36 388.35,556.00
             388.02,558.51 390.47,565.29 391.28,568.00
             391.28,568.00 399.00,594.00 399.00,594.00
             399.00,594.00 362.00,605.00 362.00,605.00
             362.00,605.00 355.00,578.00 355.00,578.00
             355.00,578.00 334.00,588.74 334.00,588.74
             319.21,595.90 295.45,603.80 279.00,604.00
             265.81,604.15 258.71,604.80 246.00,599.94
             204.69,584.13 208.10,527.52 222.28,494.00
             225.30,486.86 228.57,479.73 232.43,473.00
             247.52,446.63 270.52,422.93 295.00,405.15
             303.57,398.93 312.69,393.34 322.00,388.31
             325.06,386.65 333.33,383.20 334.98,380.61
             336.83,377.70 336.81,363.10 337.09,359.00
             337.09,359.00 341.00,308.00 341.00,308.00
             341.00,308.00 282.00,308.00 282.00,308.00
             282.00,308.00 267.00,306.96 267.00,306.96
             267.00,306.96 256.00,306.96 256.00,306.96
             256.00,306.96 246.00,306.00 246.00,306.00
             246.00,306.00 232.60,304.98 232.60,304.98
             232.60,304.98 231.00,297.00 231.00,297.00
             231.00,297.00 231.00,268.00 231.00,268.00
             231.00,268.00 246.00,269.83 246.00,269.83
             246.00,269.83 275.00,272.09 275.00,272.09
             275.00,272.09 285.00,273.00 285.00,273.00
             285.00,273.00 304.00,274.00 304.00,274.00
             304.00,274.00 345.00,274.00 345.00,274.00
             345.00,274.00 350.00,221.00 350.00,221.00
             350.00,221.00 350.00,212.00 350.00,212.00
             350.00,212.00 392.00,213.00 392.00,213.00 Z
           M 394.00,395.87
           C 394.00,395.87 377.00,400.74 377.00,400.74
             374.87,401.44 371.33,402.60 370.02,404.50
             368.55,406.63 368.97,414.18 369.00,417.00
             369.00,417.00 370.00,432.00 370.00,432.00
             370.04,459.19 373.12,486.23 378.00,513.00
             385.52,507.62 391.88,499.83 398.07,493.00
             417.37,471.74 433.42,447.66 446.25,422.00
             450.83,412.84 458.75,397.61 461.00,388.00
             434.88,388.00 419.48,389.49 394.00,395.87 Z
           M 307.00,437.92
           C 284.57,456.57 261.51,484.46 253.43,513.00
             248.78,529.41 245.60,557.20 266.00,564.24
             271.07,565.99 274.75,566.06 280.00,566.00
             297.30,565.80 314.96,558.16 330.00,550.22
             333.77,548.23 344.06,542.91 345.23,538.91
             345.83,536.87 344.18,529.54 343.75,527.00
             343.75,527.00 339.42,499.00 339.42,499.00
             339.42,499.00 335.00,450.00 335.00,450.00
             335.00,450.00 335.00,420.00 335.00,420.00
             326.49,422.03 313.85,432.22 307.00,437.92 Z" />
</svg>
